<svg width="393" height="852" viewBox="0 0 393 852" fill="none" xmlns="http://www.w3.org/2000/svg">
<g clip-path="url(#clip0_1_1726)">
<rect width="393" height="852" fill="#EBEBEB"/>
<path d="M151.386 361.013C151.516 361.013 151.646 361.013 151.776 361.013C152.059 361.013 152.342 361.012 152.624 361.013C153.048 361.013 153.471 361.012 153.895 361.012C154.617 361.012 155.339 361.012 156.061 361.012C156.793 361.012 157.524 361.011 158.256 361.011C158.325 361.011 158.325 361.011 158.396 361.011C158.584 361.011 158.772 361.011 158.961 361.011C161.189 361.01 163.418 361.01 165.647 361.01C166.757 361.009 167.868 361.009 168.978 361.009C172.542 361.008 176.106 361.008 179.67 361.008C179.84 361.008 180.01 361.008 180.181 361.008C180.522 361.008 180.864 361.008 181.205 361.007C181.605 361.007 182.005 361.007 182.405 361.007C182.52 361.007 182.634 361.007 182.748 361.007C186.421 361.007 190.094 361.006 193.766 361.005C196.405 361.004 199.045 361.004 201.684 361.003C201.738 361.003 201.792 361.003 201.848 361.003C203.042 361.003 204.235 361.003 205.429 361.003C205.856 361.003 206.283 361.003 206.71 361.003C206.817 361.003 206.923 361.003 207.029 361.003C208.718 361.003 210.407 361.002 212.096 361.002C213.799 361.001 215.503 361.001 217.206 361.001C217.442 361.001 217.678 361.001 217.914 361.001C217.96 361.001 218.007 361.001 218.054 361.001C218.783 361.001 219.511 361.001 220.24 361C220.959 361 221.678 361 222.397 361C222.78 361.001 223.163 361.001 223.547 361C228.082 360.992 232.54 361.434 242.806 364.943C242.863 364.972 242.92 365 242.979 365.029C244.19 365.636 245.354 366.316 246.467 367.088C246.515 367.121 246.515 367.121 246.564 367.154C247.287 367.657 247.99 368.194 248.664 368.761C248.706 368.796 248.706 368.796 248.748 368.832C248.84 368.91 248.932 368.987 249.024 369.065C249.051 369.088 249.078 369.111 249.106 369.135C249.68 369.627 250.222 370.154 250.756 370.689C250.855 370.789 250.955 370.889 251.055 370.988C251.368 371.301 251.675 371.613 251.959 371.952C252.01 372.011 252.061 372.069 252.112 372.127C252.476 372.547 252.825 372.976 253.162 373.417C253.192 373.454 253.221 373.492 253.251 373.531C253.957 374.447 254.614 375.402 255.202 376.398C255.223 376.432 255.243 376.465 255.263 376.5C256.823 379.106 257.891 381.927 258.602 384.872C258.623 384.957 258.623 384.957 258.645 385.044C259.192 387.277 259.466 389.588 259.596 391.881C259.599 391.93 259.602 391.98 259.605 392.031C259.867 396.438 259.494 400.986 256.405 410.345C256.384 410.393 256.362 410.441 256.34 410.49C255.503 412.331 254.413 414.157 253.083 415.687C252.965 415.823 252.854 415.963 252.744 416.106C252.546 416.356 252.323 416.577 252.095 416.8C251.982 416.914 251.876 417.029 251.773 417.152C251.561 417.4 251.315 417.61 251.07 417.825C250.987 417.901 250.905 417.978 250.822 418.054C250.532 418.314 250.227 418.552 249.919 418.79C249.809 418.876 249.699 418.962 249.59 419.049C247.694 420.542 245.611 421.839 243.328 422.649C243.22 422.691 243.118 422.741 243.015 422.794C243.051 422.805 243.087 422.816 243.124 422.827C246.518 423.845 249.735 425.469 252.345 427.899C252.418 427.966 252.492 428.033 252.567 428.097C252.897 428.379 253.203 428.684 253.51 428.99C253.603 429.083 253.697 429.176 253.79 429.269C254.107 429.584 254.407 429.902 254.684 430.254C254.788 430.384 254.899 430.507 255.013 430.63C255.304 430.951 255.568 431.29 255.83 431.634C255.871 431.688 255.871 431.688 255.914 431.744C258.952 435.753 260.992 440.468 262.797 453.196C262.798 453.289 262.798 453.382 262.799 453.475C262.8 453.771 262.8 454.066 262.8 454.361C262.8 454.412 262.8 454.462 262.8 454.514C262.801 455.972 262.791 457.422 262.642 458.873C262.63 458.993 262.618 459.113 262.607 459.233C262.428 461.126 262.11 462.995 261.688 464.849C261.68 464.885 261.672 464.922 261.663 464.959C261.057 467.626 260.134 470.257 258.871 472.685C258.818 472.786 258.768 472.888 258.719 472.99C258.259 473.939 257.714 474.846 257.138 475.729C257.115 475.763 257.093 475.798 257.07 475.833C256.573 476.594 256.052 477.336 255.483 478.045C255.409 478.138 255.337 478.231 255.264 478.325C254.978 478.694 254.682 479.046 254.366 479.39C254.304 479.46 254.243 479.529 254.182 479.599C253.967 479.846 253.749 480.089 253.529 480.332C253.506 480.357 253.483 480.382 253.459 480.409C252.936 480.986 252.401 481.567 251.805 482.07C251.691 482.168 251.582 482.271 251.472 482.374C251.042 482.778 250.589 483.152 250.129 483.522C250.097 483.548 250.066 483.573 250.034 483.599C249.142 484.316 248.213 484.989 247.249 485.605C247.162 485.66 247.162 485.66 247.075 485.716C246.65 485.986 246.222 486.249 245.785 486.498C245.685 486.555 245.585 486.613 245.485 486.671C244.174 487.425 242.796 488.085 241.394 488.648C241.344 488.668 241.344 488.668 241.293 488.689C238.145 489.96 234.858 490.751 231.508 491.264C231.471 491.269 231.435 491.275 231.398 491.281C230.547 491.411 229.693 491.502 228.837 491.584C228.794 491.588 228.751 491.593 228.707 491.597C227.055 491.757 225.403 491.803 223.745 491.8C223.484 491.799 223.223 491.799 222.962 491.8C222.507 491.8 222.053 491.8 221.598 491.799C220.921 491.799 220.245 491.799 219.568 491.799C218.43 491.799 217.292 491.798 216.153 491.798C215.027 491.797 213.901 491.797 212.776 491.797C212.723 491.797 212.723 491.797 212.669 491.797C212.349 491.797 212.028 491.797 211.708 491.797C210.911 491.797 210.115 491.796 209.319 491.796C209.282 491.796 209.246 491.796 209.209 491.796C207.45 491.796 205.69 491.795 203.931 491.795C203.321 491.794 202.711 491.794 202.102 491.794C202.064 491.794 202.026 491.794 201.987 491.794C200.225 491.793 198.464 491.793 196.703 491.793C196.588 491.793 196.474 491.793 196.359 491.793C195.6 491.792 194.842 491.792 194.083 491.792C192.573 491.792 191.064 491.792 189.554 491.791C189.483 491.791 189.411 491.791 189.339 491.791C184.708 491.79 180.077 491.789 175.017 491.787C175.066 491.72 175.115 491.654 175.164 491.588C175.192 491.551 175.219 491.514 175.247 491.476C175.367 491.322 175.501 491.189 175.642 491.055C175.848 490.852 176.045 490.647 176.232 490.426C176.387 490.252 176.556 490.091 176.722 489.927C176.862 489.785 176.992 489.637 177.121 489.485C177.264 489.325 177.418 489.177 177.57 489.026C177.674 488.921 177.772 488.813 177.868 488.701C178.001 488.545 178.141 488.4 178.286 488.256C178.431 488.113 178.569 487.969 178.702 487.815C178.885 487.601 179.084 487.405 179.285 487.207C179.425 487.065 179.555 486.917 179.684 486.765C179.827 486.605 179.981 486.457 180.133 486.306C180.237 486.201 180.335 486.093 180.431 485.981C180.564 485.825 180.704 485.68 180.849 485.536C180.994 485.393 181.132 485.249 181.265 485.095C181.448 484.881 181.647 484.685 181.848 484.487C181.988 484.345 182.118 484.197 182.247 484.045C182.39 483.885 182.544 483.737 182.696 483.586C182.8 483.481 182.898 483.373 182.994 483.261C183.127 483.105 183.267 482.96 183.412 482.816C183.557 482.673 183.695 482.529 183.828 482.375C184.011 482.161 184.21 481.965 184.411 481.767C184.551 481.625 184.681 481.477 184.81 481.325C184.953 481.165 185.107 481.017 185.259 480.866C185.363 480.761 185.461 480.653 185.557 480.541C185.69 480.385 185.83 480.24 185.975 480.096C186.12 479.954 186.258 479.809 186.391 479.655C186.574 479.441 186.773 479.245 186.974 479.047C187.114 478.905 187.244 478.757 187.373 478.605C187.516 478.445 187.67 478.297 187.823 478.146C187.925 478.042 188.022 477.935 188.117 477.824C188.3 477.61 188.5 477.414 188.7 477.216C188.84 477.074 188.97 476.926 189.099 476.775C189.242 476.614 189.396 476.466 189.549 476.315C189.652 476.21 189.75 476.102 189.846 475.99C189.979 475.835 190.119 475.689 190.264 475.546C190.409 475.403 190.548 475.259 190.68 475.104C190.863 474.89 191.063 474.694 191.263 474.496C191.403 474.354 191.533 474.206 191.662 474.055C191.805 473.894 191.959 473.746 192.112 473.596C192.215 473.49 192.313 473.382 192.409 473.27C192.542 473.115 192.682 472.969 192.827 472.826C192.972 472.683 193.111 472.539 193.243 472.384C193.426 472.17 193.626 471.974 193.826 471.776C193.966 471.634 194.096 471.486 194.225 471.335C194.368 471.174 194.522 471.026 194.675 470.876C194.778 470.77 194.876 470.663 194.972 470.55C195.105 470.395 195.245 470.249 195.39 470.106C195.535 469.963 195.674 469.819 195.806 469.664C195.989 469.45 196.189 469.255 196.389 469.056C196.529 468.915 196.659 468.766 196.788 468.615C196.931 468.455 197.085 468.306 197.238 468.156C197.341 468.05 197.439 467.943 197.535 467.83C197.668 467.675 197.808 467.529 197.953 467.386C198.098 467.243 198.237 467.099 198.369 466.944C198.552 466.73 198.751 466.535 198.952 466.337C199.092 466.195 199.222 466.046 199.351 465.895C199.494 465.735 199.648 465.586 199.801 465.436C199.904 465.33 200.002 465.223 200.098 465.11C200.231 464.955 200.371 464.81 200.516 464.666C200.661 464.523 200.8 464.379 200.932 464.224C201.115 464.01 201.314 463.815 201.515 463.617C201.655 463.475 201.785 463.326 201.914 463.175C202.057 463.015 202.211 462.866 202.364 462.716C202.466 462.611 202.563 462.505 202.658 462.394C202.841 462.18 203.041 461.984 203.241 461.786C203.381 461.644 203.511 461.496 203.64 461.344C203.783 461.184 203.937 461.036 204.09 460.885C204.193 460.78 204.291 460.672 204.387 460.56C204.52 460.404 204.66 460.259 204.806 460.115C204.95 459.972 205.089 459.828 205.221 459.674C205.404 459.46 205.604 459.264 205.804 459.066C205.944 458.924 206.074 458.776 206.203 458.624C206.346 458.464 206.5 458.316 206.653 458.165C206.756 458.06 206.854 457.952 206.95 457.84C207.083 457.684 207.223 457.539 207.369 457.395C207.513 457.252 207.652 457.108 207.784 456.954C207.967 456.74 208.167 456.544 208.367 456.346C208.507 456.204 208.637 456.056 208.766 455.904C208.909 455.744 209.063 455.596 209.216 455.445C209.319 455.34 209.417 455.232 209.513 455.12C209.646 454.964 209.786 454.819 209.932 454.675C210.076 454.532 210.215 454.388 210.347 454.234C210.53 454.02 210.73 453.824 210.93 453.626C211.07 453.484 211.2 453.336 211.329 453.184C211.472 453.024 211.626 452.876 211.779 452.725C211.881 452.621 211.978 452.514 212.073 452.403C212.256 452.189 212.456 451.993 212.656 451.795C212.796 451.653 212.926 451.505 213.055 451.354C213.198 451.193 213.352 451.045 213.505 450.894C213.609 450.789 213.706 450.681 213.802 450.569C213.935 450.414 214.075 450.268 214.221 450.125C214.365 449.982 214.504 449.838 214.636 449.683C214.819 449.469 215.019 449.273 215.219 449.075C215.359 448.933 215.489 448.785 215.618 448.634C215.761 448.473 215.915 448.325 216.068 448.174C216.172 448.069 216.269 447.961 216.365 447.849C216.498 447.694 216.638 447.548 216.784 447.405C216.928 447.262 217.067 447.118 217.199 446.963C217.382 446.749 217.582 446.553 217.782 446.355C217.922 446.213 218.052 446.065 218.181 445.914C218.324 445.753 218.478 445.605 218.631 445.454C218.735 445.349 218.832 445.241 218.928 445.129C219.061 444.974 219.201 444.828 219.347 444.685C219.491 444.542 219.63 444.398 219.762 444.243C219.945 444.029 220.145 443.833 220.345 443.635C220.485 443.493 220.615 443.345 220.744 443.194C220.887 443.033 221.041 442.885 221.194 442.735C221.298 442.629 221.395 442.521 221.491 442.409C221.624 442.254 221.764 442.108 221.91 441.965C222.054 441.822 222.193 441.678 222.325 441.523C222.508 441.309 222.708 441.114 222.908 440.915C223.048 440.774 223.178 440.625 223.307 440.474C223.45 440.314 223.604 440.165 223.757 440.015C223.86 439.909 223.958 439.802 224.054 439.689C224.187 439.534 224.327 439.388 224.473 439.245C224.617 439.102 224.756 438.958 224.888 438.803C225.071 438.589 225.271 438.394 225.471 438.196C225.611 438.054 225.741 437.905 225.87 437.754C226.013 437.593 226.167 437.445 226.32 437.294C226.423 437.19 226.519 437.084 226.614 436.973C226.797 436.759 226.997 436.563 227.197 436.365C227.337 436.223 227.467 436.075 227.596 435.923C227.739 435.763 227.893 435.615 228.046 435.464C228.15 435.359 228.247 435.251 228.343 435.139C228.476 434.983 228.616 434.838 228.762 434.694C228.906 434.551 229.045 434.407 229.177 434.253C229.36 434.039 229.56 433.843 229.76 433.645C229.9 433.503 230.03 433.355 230.159 433.203C230.302 433.043 230.456 432.895 230.609 432.744C230.713 432.639 230.81 432.531 230.906 432.419C231.039 432.263 231.179 432.118 231.325 431.974C231.502 431.799 231.667 431.618 231.829 431.429C231.94 431.305 232.058 431.191 232.178 431.075C233.139 430.117 233.711 428.907 233.721 427.538C233.723 426.255 233.263 425.085 232.371 424.154C231.163 423.03 229.787 422.83 228.21 422.832C228.087 422.832 227.965 422.831 227.843 422.831C227.509 422.83 227.175 422.83 226.841 422.83C226.517 422.83 226.193 422.829 225.87 422.828C225.208 422.827 224.546 422.826 223.884 422.826C223.23 422.825 222.575 422.824 221.92 422.823C221.879 422.823 221.838 422.823 221.796 422.823C221.589 422.823 221.382 422.823 221.175 422.822C219.709 422.82 218.244 422.818 216.779 422.816C215.355 422.815 213.932 422.813 212.509 422.811C212.443 422.811 212.443 422.811 212.376 422.811C211.935 422.81 211.494 422.809 211.053 422.809C210.155 422.807 209.257 422.806 208.359 422.805C208.317 422.805 208.276 422.805 208.234 422.805C205.478 422.801 202.723 422.797 199.967 422.794C200.016 422.696 200.065 422.597 200.114 422.498C200.155 422.416 200.155 422.416 200.197 422.332C200.326 422.079 200.47 421.835 200.615 421.591C200.679 421.481 200.744 421.371 200.809 421.261C200.842 421.204 200.876 421.147 200.91 421.088C201.086 420.786 201.259 420.483 201.432 420.179C201.72 419.673 202.012 419.169 202.306 418.666C202.54 418.265 202.771 417.862 203.001 417.459C203.289 416.953 203.581 416.449 203.875 415.946C204.109 415.545 204.34 415.142 204.57 414.739C204.859 414.233 205.15 413.729 205.444 413.226C205.679 412.825 205.909 412.423 206.139 412.019C206.428 411.513 206.719 411.009 207.013 410.506C207.248 410.105 207.479 409.703 207.709 409.299C207.968 408.844 208.229 408.391 208.493 407.939C208.756 407.49 209.016 407.038 209.274 406.586C209.642 405.941 210.012 405.298 210.384 404.655C210.547 404.373 210.71 404.09 210.873 403.807C210.938 403.694 211.004 403.58 211.069 403.467C211.102 403.411 211.134 403.355 211.167 403.297C217.738 391.907 217.738 391.907 217.836 391.737C217.902 391.624 217.967 391.511 218.032 391.398C218.198 391.109 218.365 390.821 218.532 390.532C218.726 390.198 218.919 389.863 219.111 389.527C219.138 389.481 219.165 389.434 219.192 389.386C219.59 388.694 219.59 388.694 219.896 387.958C219.916 387.899 219.937 387.84 219.958 387.78C220.317 386.578 220.14 385.288 219.58 384.18C219.448 383.937 219.287 383.724 219.111 383.512C219.073 383.464 219.034 383.416 218.994 383.367C218.191 382.427 217.073 381.914 215.853 381.797C215.628 381.779 215.404 381.779 215.178 381.779C215.127 381.779 215.075 381.779 215.023 381.779C214.851 381.779 214.68 381.779 214.508 381.779C214.384 381.779 214.26 381.779 214.135 381.778C213.865 381.778 213.595 381.778 213.325 381.778C212.923 381.778 212.522 381.778 212.12 381.778C211.361 381.777 210.602 381.777 209.843 381.777C209.256 381.777 208.67 381.777 208.083 381.777C207.914 381.777 207.746 381.777 207.577 381.777C207.535 381.777 207.493 381.777 207.449 381.777C206.268 381.776 205.088 381.776 203.907 381.776C203.84 381.776 203.84 381.776 203.772 381.776C203.546 381.776 203.321 381.776 203.095 381.776C203.028 381.776 203.028 381.776 202.959 381.776C202.869 381.776 202.778 381.776 202.687 381.776C201.278 381.776 199.869 381.776 198.46 381.775C196.876 381.774 195.292 381.774 193.708 381.774C193.539 381.774 193.37 381.774 193.201 381.774C193.159 381.774 193.118 381.774 193.075 381.774C192.406 381.774 191.737 381.773 191.068 381.773C190.396 381.773 189.723 381.773 189.051 381.773C188.652 381.773 188.253 381.773 187.854 381.772C187.555 381.772 187.256 381.772 186.958 381.773C186.837 381.773 186.717 381.773 186.597 381.772C185.385 381.764 185.385 381.764 184.21 382.031C184.151 382.051 184.151 382.051 184.091 382.072C183.516 382.28 182.969 382.609 182.543 383.052C182.445 383.146 182.445 383.146 182.34 383.146C182.32 383.19 182.32 383.19 182.3 383.235C182.227 383.371 182.138 383.477 182.039 383.597C181.666 384.075 181.407 384.631 181.126 385.166C180.984 385.435 180.838 385.703 180.692 385.97C180.455 386.408 180.219 386.846 179.983 387.285C179.734 387.748 179.482 388.211 179.23 388.673C178.997 389.1 178.767 389.528 178.536 389.955C178.304 390.388 178.07 390.819 177.836 391.251C177.627 391.637 177.419 392.024 177.211 392.411C176.961 392.874 176.71 393.337 176.458 393.799C176.225 394.226 175.994 394.654 175.764 395.081C175.532 395.514 175.298 395.946 175.064 396.377C174.855 396.763 174.647 397.15 174.439 397.537C174.189 398 173.938 398.463 173.685 398.925C173.452 399.352 173.222 399.78 172.992 400.208C172.76 400.64 172.526 401.072 172.292 401.503C172.083 401.889 171.874 402.276 171.666 402.663C171.417 403.127 171.166 403.589 170.913 404.052C170.68 404.478 170.45 404.906 170.22 405.334C169.987 405.766 169.754 406.198 169.52 406.629C169.31 407.015 169.102 407.402 168.894 407.789C168.645 408.253 168.394 408.715 168.141 409.178C167.908 409.604 167.678 410.032 167.448 410.46C167.215 410.892 166.981 411.324 166.747 411.755C166.538 412.141 166.33 412.528 166.122 412.915C165.872 413.379 165.621 413.842 165.369 414.304C165.136 414.73 164.906 415.158 164.675 415.585C164.33 416.227 163.983 416.868 163.635 417.509C163.551 417.665 163.467 417.82 163.382 417.975C163.341 418.053 163.341 418.053 163.298 418.131C163.088 418.519 162.879 418.908 162.67 419.296C162.42 419.76 162.169 420.223 161.916 420.685C161.684 421.111 161.453 421.539 161.223 421.967C160.991 422.399 160.757 422.831 160.523 423.263C160.314 423.649 160.106 424.035 159.898 424.422C159.648 424.886 159.397 425.349 159.144 425.811C158.911 426.238 158.681 426.665 158.451 427.093C158.218 427.526 157.985 427.957 157.751 428.389C157.542 428.775 157.333 429.162 157.125 429.548C156.876 430.012 156.625 430.475 156.372 430.937C156.139 431.364 155.909 431.791 155.679 432.219C155.446 432.652 155.213 433.083 154.979 433.515C154.769 433.901 154.561 434.288 154.353 434.674C154.104 435.138 153.852 435.601 153.6 436.063C153.367 436.49 153.137 436.917 152.906 437.345C152.674 437.778 152.44 438.209 152.206 438.641C151.997 439.027 151.789 439.414 151.581 439.8C151.331 440.264 151.08 440.727 150.828 441.189C150.595 441.616 150.364 442.043 150.134 442.471C149.902 442.904 149.668 443.335 149.434 443.767C149.194 444.21 148.955 444.654 148.716 445.099C148.544 445.418 148.372 445.736 148.198 446.054C148.095 446.241 147.993 446.429 147.892 446.616C147.819 446.749 147.746 446.881 147.672 447.014C147.253 447.775 147.002 448.494 146.929 449.366C146.925 449.409 146.921 449.452 146.917 449.496C146.869 450.67 147.335 451.825 148.08 452.714C148.112 452.757 148.145 452.799 148.179 452.843C148.898 453.707 150.072 454.167 151.162 454.272C151.505 454.295 151.848 454.291 152.192 454.291C152.28 454.291 152.368 454.292 152.456 454.292C152.697 454.293 152.938 454.293 153.179 454.293C153.439 454.294 153.699 454.295 153.959 454.295C154.41 454.296 154.86 454.297 155.311 454.298C155.962 454.299 156.613 454.301 157.265 454.302C158.322 454.305 159.378 454.307 160.435 454.309C161.462 454.311 162.488 454.313 163.514 454.316C163.578 454.316 163.641 454.316 163.706 454.316C164.024 454.317 164.341 454.318 164.659 454.318C167.292 454.324 169.926 454.33 172.559 454.335C172.525 454.515 172.481 454.676 172.412 454.845C172.383 454.918 172.383 454.918 172.353 454.992C172.332 455.044 172.311 455.096 172.289 455.149C172.256 455.231 172.256 455.231 172.222 455.315C172.149 455.494 172.076 455.673 172.003 455.852C171.952 455.977 171.902 456.102 171.851 456.227C171.75 456.476 171.649 456.725 171.547 456.975C171.432 457.259 171.316 457.543 171.201 457.828C170.798 458.824 170.392 459.819 169.987 460.815C169.628 461.694 169.271 462.575 168.915 463.456C168.556 464.347 168.193 465.237 167.83 466.128C167.496 466.947 167.163 467.768 166.831 468.589C166.451 469.53 166.069 470.471 165.686 471.411C165.351 472.23 165.018 473.051 164.687 473.872C164.331 474.753 163.973 475.633 163.615 476.513C163.248 477.412 162.883 478.311 162.519 479.21C162.499 479.261 162.478 479.312 162.457 479.365C162.376 479.565 162.295 479.765 162.214 479.965C161.582 481.532 160.946 483.097 160.307 484.661C160.19 484.946 160.074 485.232 159.959 485.518C158.934 488.062 157.411 490.048 154.847 491.16C153.906 491.551 152.905 491.792 151.884 491.797C151.816 491.798 151.816 491.798 151.747 491.799C151.601 491.799 151.455 491.8 151.31 491.8C151.259 491.8 151.209 491.8 151.158 491.8C146.542 491.795 141.985 489.985 138.576 486.875C138.472 486.781 138.366 486.689 138.259 486.599C137.786 486.186 137.343 485.729 136.938 485.248C136.89 485.193 136.842 485.138 136.794 485.083C136.458 484.697 136.136 484.306 135.84 483.888C135.815 483.853 135.79 483.818 135.764 483.781C133.278 480.26 131.988 476.198 132.002 471.89C132.002 471.69 132.002 471.491 132.001 471.291C132.001 470.941 132.001 470.591 132.001 470.241C132.002 469.717 132.002 469.193 132.001 468.669C132 467.776 132 466.883 132.001 465.99C132.001 465.085 132.001 464.181 132.001 463.277C132.001 463.219 132.001 463.162 132.001 463.103C132.001 462.87 132.001 462.637 132.001 462.403C132 460.234 132 458.065 132 455.896C132 455.832 132 455.768 132 455.701C132 455.637 132 455.573 132 455.507C132.001 453.546 132.001 451.586 132.001 449.625C132.001 449.494 132.001 449.362 132.001 449.231C132.001 448.703 132.001 448.175 132 447.647C132 446.171 132 444.696 132 443.22C132 443.153 132 443.086 132 443.016C132 440.876 132 438.735 132.001 436.594C132.001 436.56 132.001 436.525 132.001 436.489C132.001 435.327 132.001 434.165 132.001 433.003C132.002 429.488 132.002 425.974 132.001 419.698C132.001 418.536 132.001 417.374 132.001 416.212C132.001 416.178 132.001 416.143 132.001 416.107C132 413.934 132 411.76 132 409.587C132 409.52 132 409.453 132 409.383C132 407.909 132 406.435 132 404.961C132.001 404.433 132.001 403.906 132.001 403.379C132.001 403.247 132.001 403.116 132.001 402.985C132.001 401.025 132.001 399.065 132 397.105C132 397.041 132 396.977 132 396.911C132 396.847 132 396.783 132 396.717C132 394.554 132 392.391 132.001 390.228C132.001 389.995 132.001 389.763 132.001 389.53C132.001 389.473 132.001 389.416 132.001 389.357C132.001 388.456 132.001 387.554 132.001 386.652C132 385.764 132 384.877 132.001 383.989C132.002 383.469 132.002 382.95 132.001 382.43C132.001 382.084 132.001 381.738 132.001 381.391C132.002 381.196 132.002 381 132.001 380.805C131.998 379.499 132.081 378.21 132.342 376.928C132.35 376.889 132.357 376.851 132.365 376.811C132.94 373.942 134.142 371.212 135.892 368.866C135.913 368.838 135.934 368.81 135.955 368.781C136.512 368.034 137.131 367.342 137.775 366.669C137.801 366.642 137.828 366.614 137.854 366.586C138.15 366.279 138.457 365.998 138.79 365.733C138.913 365.634 139.029 365.531 139.145 365.424C141.919 362.94 145.774 361.458 149.44 361.072C149.483 361.068 149.525 361.063 149.57 361.058C150.174 361.003 150.78 361.013 151.386 361.013Z" fill="#0375F6"/>
</g>
<defs>
<clipPath id="clip0_1_1726">
<rect width="393" height="852" fill="white"/>
</clipPath>
</defs>
</svg>
